<mxfile host="Electron" modified="2024-03-18T00:49:22.217Z" agent="Mozilla/5.0 (Windows NT 10.0; Win64; x64) AppleWebKit/537.36 (KHTML, like Gecko) draw.io/24.0.4 Chrome/120.0.6099.109 Electron/28.1.0 Safari/537.36" etag="1v1CxlaKjC_8-9um7DWj" version="24.0.4" type="device">
  <diagram name="Inicialization" id="I3t2FeFDkv4vFf2bPcbG">
    <mxGraphModel dx="1793" dy="2237" grid="1" gridSize="10" guides="1" tooltips="1" connect="1" arrows="1" fold="1" page="1" pageScale="1" pageWidth="827" pageHeight="1169" math="0" shadow="0">
      <root>
        <mxCell id="0" />
        <mxCell id="1" parent="0" />
        <mxCell id="xZmcpwFrHKzyIDTp6BxP-6" value="s: Skeleton" style="html=1;whiteSpace=wrap;fontSize=16;" vertex="1" parent="1">
          <mxGeometry x="20" y="320" width="130" height="60" as="geometry" />
        </mxCell>
        <mxCell id="xZmcpwFrHKzyIDTp6BxP-17" style="edgeStyle=orthogonalEdgeStyle;rounded=0;orthogonalLoop=1;jettySize=auto;html=1;exitX=1;exitY=0.5;exitDx=0;exitDy=0;entryX=0;entryY=0.5;entryDx=0;entryDy=0;endArrow=none;endFill=0;fontSize=16;" edge="1" parent="1" source="xZmcpwFrHKzyIDTp6BxP-7" target="xZmcpwFrHKzyIDTp6BxP-15">
          <mxGeometry relative="1" as="geometry" />
        </mxCell>
        <mxCell id="xZmcpwFrHKzyIDTp6BxP-21" style="edgeStyle=orthogonalEdgeStyle;rounded=0;orthogonalLoop=1;jettySize=auto;html=1;exitX=0.5;exitY=0;exitDx=0;exitDy=0;entryX=0.5;entryY=1;entryDx=0;entryDy=0;endArrow=none;endFill=0;fontSize=16;" edge="1" parent="1" source="xZmcpwFrHKzyIDTp6BxP-7" target="xZmcpwFrHKzyIDTp6BxP-20">
          <mxGeometry relative="1" as="geometry" />
        </mxCell>
        <mxCell id="xZmcpwFrHKzyIDTp6BxP-7" value="init: GameInitializer" style="html=1;whiteSpace=wrap;fontSize=16;" vertex="1" parent="1">
          <mxGeometry x="440" y="320" width="130" height="60" as="geometry" />
        </mxCell>
        <mxCell id="xZmcpwFrHKzyIDTp6BxP-12" value="" style="endArrow=none;html=1;rounded=0;exitX=1;exitY=0.5;exitDx=0;exitDy=0;entryX=0;entryY=0.5;entryDx=0;entryDy=0;fontSize=16;" edge="1" parent="1" source="xZmcpwFrHKzyIDTp6BxP-6" target="xZmcpwFrHKzyIDTp6BxP-7">
          <mxGeometry width="50" height="50" relative="1" as="geometry">
            <mxPoint x="290.32" y="360" as="sourcePoint" />
            <mxPoint x="475.32" y="290" as="targetPoint" />
          </mxGeometry>
        </mxCell>
        <mxCell id="xZmcpwFrHKzyIDTp6BxP-14" value="&amp;lt;&amp;lt;create&amp;gt;&amp;gt;&lt;br style=&quot;font-size: 16px;&quot;&gt;5: GameController()" style="endArrow=classic;html=1;rounded=0;fontSize=16;" edge="1" parent="1">
          <mxGeometry y="-30" width="50" height="50" relative="1" as="geometry">
            <mxPoint x="640" y="370" as="sourcePoint" />
            <mxPoint x="780" y="370" as="targetPoint" />
            <mxPoint as="offset" />
          </mxGeometry>
        </mxCell>
        <mxCell id="xZmcpwFrHKzyIDTp6BxP-36" style="edgeStyle=orthogonalEdgeStyle;rounded=0;orthogonalLoop=1;jettySize=auto;html=1;exitX=0.5;exitY=0;exitDx=0;exitDy=0;entryX=0.5;entryY=1;entryDx=0;entryDy=0;endArrow=none;endFill=0;fontSize=16;" edge="1" parent="1" source="xZmcpwFrHKzyIDTp6BxP-15" target="xZmcpwFrHKzyIDTp6BxP-35">
          <mxGeometry relative="1" as="geometry" />
        </mxCell>
        <mxCell id="xZmcpwFrHKzyIDTp6BxP-15" value="ctr: GameController" style="html=1;whiteSpace=wrap;fontSize=16;" vertex="1" parent="1">
          <mxGeometry x="790" y="320" width="130" height="60" as="geometry" />
        </mxCell>
        <mxCell id="xZmcpwFrHKzyIDTp6BxP-16" value="&amp;lt;&amp;lt;create&amp;gt;&amp;gt;&lt;br style=&quot;font-size: 16px;&quot;&gt;1: initGame()" style="endArrow=classic;html=1;rounded=0;fontSize=16;" edge="1" parent="1">
          <mxGeometry y="-40" width="50" height="50" relative="1" as="geometry">
            <mxPoint x="220" y="370" as="sourcePoint" />
            <mxPoint x="360" y="370" as="targetPoint" />
            <mxPoint as="offset" />
          </mxGeometry>
        </mxCell>
        <mxCell id="xZmcpwFrHKzyIDTp6BxP-18" style="edgeStyle=orthogonalEdgeStyle;rounded=0;orthogonalLoop=1;jettySize=auto;html=1;exitX=1;exitY=0.75;exitDx=0;exitDy=0;entryX=0.709;entryY=1.043;entryDx=0;entryDy=0;entryPerimeter=0;endArrow=none;endFill=0;fontSize=16;" edge="1" parent="1" source="xZmcpwFrHKzyIDTp6BxP-7" target="xZmcpwFrHKzyIDTp6BxP-7">
          <mxGeometry relative="1" as="geometry">
            <Array as="points">
              <mxPoint x="610" y="365" />
              <mxPoint x="610" y="420" />
              <mxPoint x="532" y="420" />
            </Array>
          </mxGeometry>
        </mxCell>
        <mxCell id="xZmcpwFrHKzyIDTp6BxP-19" value="4: initMaps()" style="endArrow=classic;html=1;rounded=0;fontSize=16;" edge="1" parent="1">
          <mxGeometry y="20" width="50" height="50" relative="1" as="geometry">
            <mxPoint x="600" y="440" as="sourcePoint" />
            <mxPoint x="540" y="440" as="targetPoint" />
            <mxPoint as="offset" />
          </mxGeometry>
        </mxCell>
        <mxCell id="xZmcpwFrHKzyIDTp6BxP-27" value="" style="rounded=0;orthogonalLoop=1;jettySize=auto;html=1;exitX=0;exitY=0;exitDx=0;exitDy=0;entryX=1;entryY=1;entryDx=0;entryDy=0;endArrow=none;endFill=0;fontSize=16;" edge="1" parent="1" source="xZmcpwFrHKzyIDTp6BxP-20" target="xZmcpwFrHKzyIDTp6BxP-24">
          <mxGeometry x="0.0891" y="79" relative="1" as="geometry">
            <mxPoint as="offset" />
          </mxGeometry>
        </mxCell>
        <mxCell id="xZmcpwFrHKzyIDTp6BxP-20" value="ch: Character" style="html=1;whiteSpace=wrap;fontSize=16;" vertex="1" parent="1">
          <mxGeometry x="440" y="150" width="130" height="60" as="geometry" />
        </mxCell>
        <mxCell id="xZmcpwFrHKzyIDTp6BxP-22" value="&amp;lt;&amp;lt;create&amp;gt;&amp;gt;&lt;br style=&quot;font-size: 16px;&quot;&gt;2: initCaracters()" style="endArrow=classic;html=1;rounded=0;fontSize=16;" edge="1" parent="1">
          <mxGeometry y="60" width="50" height="50" relative="1" as="geometry">
            <mxPoint x="480" y="310" as="sourcePoint" />
            <mxPoint x="480" y="230" as="targetPoint" />
            <mxPoint as="offset" />
          </mxGeometry>
        </mxCell>
        <mxCell id="xZmcpwFrHKzyIDTp6BxP-24" value="st: Student" style="html=1;whiteSpace=wrap;fontSize=16;" vertex="1" parent="1">
          <mxGeometry x="270" y="50" width="130" height="60" as="geometry" />
        </mxCell>
        <mxCell id="xZmcpwFrHKzyIDTp6BxP-25" value="inst: Instructor" style="html=1;whiteSpace=wrap;fontSize=16;" vertex="1" parent="1">
          <mxGeometry x="490" y="30" width="130" height="60" as="geometry" />
        </mxCell>
        <mxCell id="xZmcpwFrHKzyIDTp6BxP-26" value="" style="rounded=0;orthogonalLoop=1;jettySize=auto;html=1;exitX=0.75;exitY=0;exitDx=0;exitDy=0;entryX=0.598;entryY=1.047;entryDx=0;entryDy=0;entryPerimeter=0;endArrow=none;endFill=0;fontSize=16;" edge="1" parent="1" source="xZmcpwFrHKzyIDTp6BxP-20" target="xZmcpwFrHKzyIDTp6BxP-25">
          <mxGeometry x="0.4791" y="68" relative="1" as="geometry">
            <mxPoint x="2" y="1" as="offset" />
          </mxGeometry>
        </mxCell>
        <mxCell id="xZmcpwFrHKzyIDTp6BxP-33" value="3: ch" style="endArrow=none;dashed=1;html=1;rounded=0;startArrow=classic;startFill=1;fontSize=16;" edge="1" parent="1">
          <mxGeometry x="-0.1429" y="-25" width="50" height="50" relative="1" as="geometry">
            <mxPoint x="524.6" y="300" as="sourcePoint" />
            <mxPoint x="524.6" y="230" as="targetPoint" />
            <mxPoint as="offset" />
          </mxGeometry>
        </mxCell>
        <mxCell id="xZmcpwFrHKzyIDTp6BxP-41" style="rounded=0;orthogonalLoop=1;jettySize=auto;html=1;exitX=0;exitY=0;exitDx=0;exitDy=0;entryX=0.5;entryY=1;entryDx=0;entryDy=0;endArrow=none;endFill=0;fontSize=16;" edge="1" parent="1" source="xZmcpwFrHKzyIDTp6BxP-35" target="xZmcpwFrHKzyIDTp6BxP-39">
          <mxGeometry relative="1" as="geometry" />
        </mxCell>
        <mxCell id="xZmcpwFrHKzyIDTp6BxP-42" style="rounded=0;orthogonalLoop=1;jettySize=auto;html=1;exitX=0.75;exitY=0;exitDx=0;exitDy=0;endArrow=none;endFill=0;fontSize=16;" edge="1" parent="1" source="xZmcpwFrHKzyIDTp6BxP-35" target="xZmcpwFrHKzyIDTp6BxP-40">
          <mxGeometry relative="1" as="geometry" />
        </mxCell>
        <mxCell id="xZmcpwFrHKzyIDTp6BxP-44" style="rounded=0;orthogonalLoop=1;jettySize=auto;html=1;exitX=1;exitY=0.5;exitDx=0;exitDy=0;entryX=0.5;entryY=1;entryDx=0;entryDy=0;endArrow=none;endFill=0;fontSize=16;" edge="1" parent="1" source="xZmcpwFrHKzyIDTp6BxP-35" target="xZmcpwFrHKzyIDTp6BxP-43">
          <mxGeometry relative="1" as="geometry" />
        </mxCell>
        <mxCell id="xZmcpwFrHKzyIDTp6BxP-35" value="r: Room" style="html=1;whiteSpace=wrap;fontSize=16;" vertex="1" parent="1">
          <mxGeometry x="790" y="150" width="130" height="60" as="geometry" />
        </mxCell>
        <mxCell id="xZmcpwFrHKzyIDTp6BxP-39" value="re: RegualrRoom" style="html=1;whiteSpace=wrap;fontSize=16;" vertex="1" parent="1">
          <mxGeometry x="670" width="130" height="60" as="geometry" />
        </mxCell>
        <mxCell id="xZmcpwFrHKzyIDTp6BxP-40" value="rg: GasRoom" style="html=1;whiteSpace=wrap;fontSize=16;" vertex="1" parent="1">
          <mxGeometry x="830" y="-50" width="130" height="60" as="geometry" />
        </mxCell>
        <mxCell id="xZmcpwFrHKzyIDTp6BxP-104" style="rounded=0;orthogonalLoop=1;jettySize=auto;html=1;exitX=1;exitY=0.5;exitDx=0;exitDy=0;entryX=0;entryY=0.5;entryDx=0;entryDy=0;endArrow=none;endFill=0;" edge="1" parent="1" source="xZmcpwFrHKzyIDTp6BxP-43" target="xZmcpwFrHKzyIDTp6BxP-52">
          <mxGeometry relative="1" as="geometry" />
        </mxCell>
        <mxCell id="xZmcpwFrHKzyIDTp6BxP-43" value="i: Item" style="html=1;whiteSpace=wrap;fontSize=16;" vertex="1" parent="1">
          <mxGeometry x="1111" y="-120" width="130" height="60" as="geometry" />
        </mxCell>
        <mxCell id="xZmcpwFrHKzyIDTp6BxP-54" style="rounded=0;orthogonalLoop=1;jettySize=auto;html=1;exitX=0;exitY=0.5;exitDx=0;exitDy=0;entryX=1;entryY=0.5;entryDx=0;entryDy=0;endArrow=none;endFill=0;" edge="1" parent="1" source="xZmcpwFrHKzyIDTp6BxP-45" target="xZmcpwFrHKzyIDTp6BxP-43">
          <mxGeometry relative="1" as="geometry" />
        </mxCell>
        <mxCell id="xZmcpwFrHKzyIDTp6BxP-45" value="rl: SideRuler" style="html=1;whiteSpace=wrap;fontSize=16;" vertex="1" parent="1">
          <mxGeometry x="1300" y="-170" width="130" height="60" as="geometry" />
        </mxCell>
        <mxCell id="xZmcpwFrHKzyIDTp6BxP-55" style="rounded=0;orthogonalLoop=1;jettySize=auto;html=1;exitX=0;exitY=0.5;exitDx=0;exitDy=0;endArrow=none;endFill=0;" edge="1" parent="1" source="xZmcpwFrHKzyIDTp6BxP-46">
          <mxGeometry relative="1" as="geometry">
            <mxPoint x="1240" y="-90" as="targetPoint" />
          </mxGeometry>
        </mxCell>
        <mxCell id="xZmcpwFrHKzyIDTp6BxP-46" value="d: Dice" style="html=1;whiteSpace=wrap;fontSize=16;" vertex="1" parent="1">
          <mxGeometry x="1300" y="-90" width="130" height="60" as="geometry" />
        </mxCell>
        <mxCell id="xZmcpwFrHKzyIDTp6BxP-57" style="rounded=0;orthogonalLoop=1;jettySize=auto;html=1;exitX=0;exitY=0.5;exitDx=0;exitDy=0;entryX=1;entryY=0.5;entryDx=0;entryDy=0;endArrow=none;endFill=0;" edge="1" parent="1" source="xZmcpwFrHKzyIDTp6BxP-47" target="xZmcpwFrHKzyIDTp6BxP-43">
          <mxGeometry relative="1" as="geometry" />
        </mxCell>
        <mxCell id="xZmcpwFrHKzyIDTp6BxP-47" value="tv: TVSZ" style="html=1;whiteSpace=wrap;fontSize=16;" vertex="1" parent="1">
          <mxGeometry x="1300" y="73" width="130" height="60" as="geometry" />
        </mxCell>
        <mxCell id="xZmcpwFrHKzyIDTp6BxP-56" style="rounded=0;orthogonalLoop=1;jettySize=auto;html=1;exitX=0;exitY=0.5;exitDx=0;exitDy=0;entryX=1;entryY=0.5;entryDx=0;entryDy=0;endArrow=none;endFill=0;" edge="1" parent="1" source="xZmcpwFrHKzyIDTp6BxP-48" target="xZmcpwFrHKzyIDTp6BxP-43">
          <mxGeometry relative="1" as="geometry">
            <mxPoint x="1410" y="-40" as="targetPoint" />
          </mxGeometry>
        </mxCell>
        <mxCell id="xZmcpwFrHKzyIDTp6BxP-48" value="f: FFP2" style="html=1;whiteSpace=wrap;fontSize=16;" vertex="1" parent="1">
          <mxGeometry x="1300" y="-10" width="130" height="60" as="geometry" />
        </mxCell>
        <mxCell id="xZmcpwFrHKzyIDTp6BxP-58" style="rounded=0;orthogonalLoop=1;jettySize=auto;html=1;exitX=0;exitY=0.5;exitDx=0;exitDy=0;entryX=1;entryY=0.5;entryDx=0;entryDy=0;endArrow=none;endFill=0;" edge="1" parent="1" source="xZmcpwFrHKzyIDTp6BxP-49" target="xZmcpwFrHKzyIDTp6BxP-43">
          <mxGeometry relative="1" as="geometry" />
        </mxCell>
        <mxCell id="xZmcpwFrHKzyIDTp6BxP-49" value="wr: WetRag" style="html=1;whiteSpace=wrap;fontSize=16;" vertex="1" parent="1">
          <mxGeometry x="1300" y="150" width="130" height="60" as="geometry" />
        </mxCell>
        <mxCell id="xZmcpwFrHKzyIDTp6BxP-60" style="rounded=0;orthogonalLoop=1;jettySize=auto;html=1;exitX=0;exitY=0.5;exitDx=0;exitDy=0;entryX=1;entryY=0.5;entryDx=0;entryDy=0;endArrow=none;endFill=0;" edge="1" parent="1" source="xZmcpwFrHKzyIDTp6BxP-50" target="xZmcpwFrHKzyIDTp6BxP-43">
          <mxGeometry relative="1" as="geometry" />
        </mxCell>
        <mxCell id="xZmcpwFrHKzyIDTp6BxP-50" value="c: Camambert" style="html=1;whiteSpace=wrap;fontSize=16;" vertex="1" parent="1">
          <mxGeometry x="1300" y="310" width="130" height="60" as="geometry" />
        </mxCell>
        <mxCell id="xZmcpwFrHKzyIDTp6BxP-59" style="rounded=0;orthogonalLoop=1;jettySize=auto;html=1;exitX=0;exitY=0.5;exitDx=0;exitDy=0;entryX=1;entryY=0.5;entryDx=0;entryDy=0;endArrow=none;endFill=0;" edge="1" parent="1" source="xZmcpwFrHKzyIDTp6BxP-51" target="xZmcpwFrHKzyIDTp6BxP-43">
          <mxGeometry relative="1" as="geometry" />
        </mxCell>
        <mxCell id="xZmcpwFrHKzyIDTp6BxP-51" value="b: GlassOfBeer" style="html=1;whiteSpace=wrap;fontSize=16;" vertex="1" parent="1">
          <mxGeometry x="1300" y="230" width="130" height="60" as="geometry" />
        </mxCell>
        <mxCell id="xZmcpwFrHKzyIDTp6BxP-52" value="tr: Transistor" style="html=1;whiteSpace=wrap;fontSize=16;" vertex="1" parent="1">
          <mxGeometry x="1300" y="390" width="130" height="60" as="geometry" />
        </mxCell>
        <mxCell id="xZmcpwFrHKzyIDTp6BxP-63" value="" style="endArrow=classic;html=1;rounded=0;" edge="1" parent="1">
          <mxGeometry width="50" height="50" relative="1" as="geometry">
            <mxPoint x="940" y="140" as="sourcePoint" />
            <mxPoint x="1120" y="-30" as="targetPoint" />
          </mxGeometry>
        </mxCell>
        <mxCell id="xZmcpwFrHKzyIDTp6BxP-76" value="" style="endArrow=classic;html=1;rounded=0;" edge="1" parent="1">
          <mxGeometry width="50" height="50" relative="1" as="geometry">
            <mxPoint x="843" y="310" as="sourcePoint" />
            <mxPoint x="840" y="230" as="targetPoint" />
          </mxGeometry>
        </mxCell>
        <mxCell id="xZmcpwFrHKzyIDTp6BxP-77" value="" style="endArrow=none;dashed=1;html=1;rounded=0;startArrow=classic;startFill=1;fontSize=16;" edge="1" parent="1">
          <mxGeometry x="-0.1429" y="-25" width="50" height="50" relative="1" as="geometry">
            <mxPoint x="870" y="300" as="sourcePoint" />
            <mxPoint x="870" y="230" as="targetPoint" />
            <mxPoint as="offset" />
          </mxGeometry>
        </mxCell>
        <mxCell id="xZmcpwFrHKzyIDTp6BxP-84" value="" style="endArrow=none;dashed=1;html=1;rounded=0;startArrow=classic;startFill=1;fontSize=16;" edge="1" parent="1">
          <mxGeometry x="-0.1429" y="-25" width="50" height="50" relative="1" as="geometry">
            <mxPoint x="981" y="140.62" as="sourcePoint" />
            <mxPoint x="1130" y="10" as="targetPoint" />
            <mxPoint as="offset" />
          </mxGeometry>
        </mxCell>
        <mxCell id="xZmcpwFrHKzyIDTp6BxP-86" value="&amp;lt;&amp;lt;create&amp;gt;&amp;gt;&lt;br&gt;6: Room()" style="text;html=1;align=center;verticalAlign=middle;resizable=0;points=[];autosize=1;strokeColor=none;fillColor=none;fontSize=16;" vertex="1" parent="1">
          <mxGeometry x="720" y="240" width="110" height="50" as="geometry" />
        </mxCell>
        <mxCell id="xZmcpwFrHKzyIDTp6BxP-92" value="&lt;font style=&quot;font-size: 16px;&quot;&gt;&amp;lt;&amp;lt;create&amp;gt;&amp;gt;&lt;br&gt;6.1: Item()&lt;/font&gt;" style="text;html=1;align=center;verticalAlign=middle;resizable=0;points=[];autosize=1;strokeColor=none;fillColor=none;" vertex="1" parent="1">
          <mxGeometry x="970" y="-50" width="110" height="50" as="geometry" />
        </mxCell>
        <mxCell id="xZmcpwFrHKzyIDTp6BxP-105" value="&lt;span style=&quot;font-size: 16px;&quot;&gt;6.2: i&lt;/span&gt;" style="text;html=1;align=center;verticalAlign=middle;resizable=0;points=[];autosize=1;strokeColor=none;fillColor=none;" vertex="1" parent="1">
          <mxGeometry x="1080" y="50" width="60" height="30" as="geometry" />
        </mxCell>
        <mxCell id="xZmcpwFrHKzyIDTp6BxP-106" value="sd Initialization" style="shape=umlFrame;whiteSpace=wrap;html=1;pointerEvents=0;fontSize=23;width=370;height=50;" vertex="1" parent="1">
          <mxGeometry y="-210" width="1450" height="690" as="geometry" />
        </mxCell>
        <mxCell id="xZmcpwFrHKzyIDTp6BxP-107" value="&lt;span style=&quot;font-size: 16px;&quot;&gt;7: r&lt;/span&gt;" style="text;html=1;align=center;verticalAlign=middle;resizable=0;points=[];autosize=1;strokeColor=none;fillColor=none;" vertex="1" parent="1">
          <mxGeometry x="870" y="250" width="50" height="30" as="geometry" />
        </mxCell>
      </root>
    </mxGraphModel>
  </diagram>
</mxfile>
